# xmcd
#
# Track frame offsets: 
#        150
#        21544
#        41565
#        65494
#        80157
#        98867
#        116749
#        133549
#        156975
#        175754
#        193595
#        214192
#
# Disc length: 3097 seconds
#
# Revision: 0
# Processed by: cddbd v1.5.2PL0 Copyright (c) Steve Scherf et al.
# Submitted via: ExactAudioCopyFreeDBPlugin 1.0
#
DISCID=ae0c170c
DTITLE=รวมศิลปิน - รวมเพลง ฅ.ฅนดนตรี 2
DYEAR=1900
DGENRE=
TTITLE0=คาราวาน - เพลงเสรีภาพ
TTITLE1=แดง โฮป - ยิ้มกลางสายฝน
TTITLE2=พงษ์สิทธิ์ คำภีร์ - แค่นั้น
TTITLE3=ศุ บุญเลี้ยง - นักเดินทาง
TTITLE4=สะตอ - ศรีตรัง
TTITLE5=แอร์ - ฮ้องไห้ใส่งาน
TTITLE6=หงา คาราวาน - คนของแผ่นดิน
TTITLE7=พงษ์สิทธิ์ คำภีร์ - หนุ่มน้อย
TTITLE8=แดง โฮป - จากภูผาถึงทะเล
TTITLE9=แก้ว+ศุ - พูดด้วยตาฟังด้วยใจ
TTITLE10=นัดฐา - ฟ้าหลังฝน
TTITLE11=หงา คาราวาน - ถนนมิตรภาพ
EXTD=
EXTT0=
EXTT1=
EXTT2=
EXTT3=
EXTT4=
EXTT5=
EXTT6=
EXTT7=
EXTT8=
EXTT9=
EXTT10=
EXTT11=
PLAYORDER=
